<svg width="29" height="27" viewBox="0 0 29 27" fill="none" xmlns="http://www.w3.org/2000/svg">
<path fill-rule="evenodd" clip-rule="evenodd" d="M15.2246 14.8886L14.0185 14.7866L12.854 14.5474L11.8506 14.2264L11.1261 13.8803L11.6999 15.3286L9.93721 15.7345L8.31277 15.7904L6.834 15.5751L5.50747 15.1657L4.33998 14.6406L3.16504 13.8981L2.67927 13.4705L9.4324 7.19779L9.48828 6.34828L9.69522 5.42739L10.043 4.49711L10.5235 3.61938L0 13.4078L0.789028 14.3361L2.4765 15.7486L3.83457 16.4848L5.20036 17.0218L6.45288 17.3733L8.02142 17.6L8.5741 17.6217L9.12708 17.617L10.7456 17.4525L11.9948 17.1679L12.3884 17.0417L12.5032 17.533L12.7458 18.7696L13.9445 17.5301L14.6025 16.7123L14.9518 15.9532L15.2246 14.8886Z" fill="#68c6e2"/>
<path fill-rule="evenodd" clip-rule="evenodd" d="M20.1796 14.9535L18.8465 13.8385L17.968 13.2263L17.1516 12.9019L16.007 12.6475L15.8973 13.77L15.6399 14.8529L15.2952 15.7861L14.9233 16.4601L16.48 15.9261L16.9162 17.5657L16.9768 19.077L16.7451 20.4528L16.3049 21.6864L15.7406 22.772L14.9424 23.865L14.4827 24.3168L7.73913 18.0352L6.82553 17.9833L5.83583 17.7913L4.8354 17.4676L3.89209 17.0204L14.4156 26.8087L15.4135 26.0754L16.9319 24.5054L17.7231 23.2425L18.3007 21.9718L18.6786 20.8067L18.9217 19.348L18.9454 18.8336L18.9405 18.3195L18.7632 16.8141L18.4576 15.6521L18.3221 15.2856L18.8497 15.1792L20.1796 14.9535Z" fill="#68c6e2"/>
<path fill-rule="evenodd" clip-rule="evenodd" d="M24.9372 9.78837L14.4137 0L14.2433 0.11504L13.8842 0.371668L12.9156 1.16146L11.8968 2.30329L11.1056 3.56625L10.5283 4.83694L10.1504 6.00201L9.90693 7.46075L9.88374 7.97456L9.8885 8.4892L10.0654 9.99468L10.3716 11.1567L10.5072 11.5231L9.97917 11.6296L8.64966 11.8552L9.98245 12.9702L11.6771 13.9069L12.8217 14.1613L12.9314 13.0388L13.1885 11.9559L13.5337 11.0223L13.9059 10.3486L12.3493 10.8826L11.9125 9.24304L11.8522 7.73176L12.0838 6.35597L12.5238 5.12233L13.0886 4.03664L13.8866 2.94376L14.3465 2.49189L21.0901 8.77348L22.0034 8.82547L22.9934 9.01738L23.9933 9.34121L24.9372 9.78837Z" fill="#68c6e2"/>
<path fill-rule="evenodd" clip-rule="evenodd" d="M28.8188 13.4074L28.0304 12.4791L26.3427 11.0663L24.9852 10.3304L23.6189 9.79335L22.3669 9.44186L20.798 9.21538L20.2456 9.19325L19.6923 9.19824L18.0738 9.36277L16.8247 9.64761L16.4308 9.77343L16.3163 9.28231L16.0734 8.0459L14.8749 9.28507L13.868 10.8619L13.5945 11.9266L14.8012 12.0286L15.9655 12.2681L16.9692 12.5889L17.6933 12.9351L17.1192 11.4871L18.8825 11.0809L20.5066 11.0248L21.9857 11.2402L23.3122 11.6495L24.4792 12.1746L25.6541 12.9171L26.1399 13.3444L19.3868 19.6174L19.3309 20.4669L19.1246 21.3881L18.7764 22.3183L18.2957 23.1961L28.8188 13.4074Z" fill="#68c6e2"/>
</svg>
