<svg xmlns="http://www.w3.org/2000/svg" style="display:none" aria-hidden="true">
    <symbol id="unload" viewBox="0 0 16 16">
        <path fill="white" fill-rule="evenodd"
              d="M15 2a1 1 0 0 0-1-1H2a1 1 0 0 0-1 1v12a1 1 0 0 0 1 1h12a1 1 0 0 0 1-1V2zM0 2a2 2 0 0 1 2-2h12a2 2 0 0 1 2 2v12a2 2 0 0 1-2 2H2a2 2 0 0 1-2-2V2zm8.5 2.5a.5.5 0 0 0-1 0v5.793L5.354 8.146a.5.5 0 1 0-.708.708l3 3a.5.5 0 0 0 .708 0l3-3a.5.5 0 0 0-.708-.708L8.5 10.293V4.5z"/>
    </symbol>

    <symbol id="driver" viewBox="0 0 24 24" fill="none" stroke="currentColor" stroke-width="2">
        <path  d="M14 18V6a2 2 0 0 0-2-2H4a2 2 0 0 0-2 2v11a1 1 0 0 0 1 1h2"/><path d="M15 18H9"/><path d="M19 18h2a1 1 0 0 0 1-1v-3.65a1 1 0 0 0-.22-.624l-3.48-4.35A1 1 0 0 0 17.52 8H14"/><circle cx="17" cy="18" r="2"/><circle cx="7" cy="18" r="2"/>
    </symbol>
    <symbol id="consignee" viewBox="0 0 24 24" fill="none" stroke="currentColor" stroke-width="2" stroke-linejoin="round" stroke-linecap="round">
        <path d="M6 22V4a2 2 0 0 1 2-2h8a2 2 0 0 1 2 2v18Z"/><path d="M6 12H4a2 2 0 0 0-2 2v6a2 2 0 0 0 2 2h2"/><path d="M18 9h2a2 2 0 0 1 2 2v9a2 2 0 0 1-2 2h-2"/><path d="M10 6h4"/><path d="M10 10h4"/><path d="M10 14h4"/><path d="M10 18h4"/>
    </symbol>
    <symbol id="manager" viewBox="0 0 24 24" fill="none" stroke="currentColor" stroke-width="2" stroke-linecap="round" stroke-linejoin="round" class="lucide lucide-headphones h-7 w-7 text-primary">
        <path d="M3 14h3a2 2 0 0 1 2 2v3a2 2 0 0 1-2 2H5a2 2 0 0 1-2-2v-7a9 9 0 0 1 18 0v7a2 2 0 0 1-2 2h-1a2 2 0 0 1-2-2v-3a2 2 0 0 1 2-2h3"/>
    </symbol>

    <symbol id="down-chevron" viewBox="0 0 24 24" fill="none" stroke="currentColor" stroke-width="2" stroke-linecap="round" stroke-linejoin="round">
        <path d="m9 18 6-6-6-6"/>
    </symbol>

    <symbol id="map-marker" viewBox="0 0 24 36" role="img">
        <path d="M12 2C7 2 3 6 3 11c0 6.08 9 19 9 19s9-12.92 9-19c0-5-4-9-9-9z" fill="none" stroke="currentColor" stroke-width="2"/>
        <circle cx="12" cy="11" r="4" fill="none" stroke="currentColor" stroke-width="2"/>
    </symbol>


</svg>

