<svg xmlns="http://www.w3.org/2000/svg" aria-hidden="true">

    <symbol id="arrow" viewBox="0 0 35 15" fill="none">
        <path d="M34.6482 8.07112C35.0388 7.6806 35.0388 7.04743 34.6482 6.65691L28.2843 0.292946C27.8937 -0.0975785 27.2606 -0.0975785 26.8701 0.292946C26.4795 0.68347 26.4795 1.31664 26.8701 1.70716L32.5269 7.36401L26.8701 13.0209C26.4795 13.4114 26.4795 14.0446 26.8701 14.4351C27.2606 14.8256 27.8937 14.8256 28.2843 14.4351L34.6482 8.07112ZM0 7.36401L0 8.36401L33.9411 8.36401V7.36401V6.36401L0 6.36401L0 7.36401Z" fill="currentColor"/>
    </symbol>
    <symbol id="arrow-bold" viewBox="0 0 29 15" fill="none" >
        <path d="M28.7071 8.07112C29.0976 7.6806 29.0976 7.04743 28.7071 6.65691L22.3431 0.292946C21.9526 -0.0975785 21.3195 -0.0975785 20.9289 0.292946C20.5384 0.68347 20.5384 1.31664 20.9289 1.70716L26.5858 7.36401L20.9289 13.0209C20.5384 13.4114 20.5384 14.0446 20.9289 14.4351C21.3195 14.8256 21.9526 14.8256 22.3431 14.4351L28.7071 8.07112ZM0 7.36401V8.36401H28V7.36401V6.36401H0V7.36401Z" fill="currentColor"/>
    </symbol>

    <symbol id="logo-transparent" viewBox="0 0 136 137" fill="none">
        <g clip-path="url(#clip0_26_1607)">
            <path d="M50.6982 23.0818C48.431 27.8955 47.284 33.4301 47.249 37.8914L16.4414 68.5789L16.085 68.9333L16.4414 69.2869C16.4756 69.321 16.5368 69.3921 16.6494 69.5232C16.755 69.646 16.8921 69.8054 17.0605 69.9929C17.3981 70.3687 17.8615 70.8567 18.4697 71.4099C19.6866 72.5166 21.4783 73.8806 24 75.1365V75.1355C32.3284 79.6946 44.0292 83.4416 58.2305 78.449L58.7031 78.283L58.5361 77.8103L56.4814 72.0125C60.4335 73.9532 67.2812 76.2695 73.9277 76.4128C72.8058 80.4649 70.1137 84.8574 67.6152 88.322C66.3086 90.1339 65.0657 91.6789 64.1494 92.7703C63.8479 93.1295 63.5804 93.4381 63.3594 93.6921C63.2693 93.0793 63.1442 92.2549 62.9941 91.3582C62.6855 89.5138 62.2679 87.3173 61.8408 86.0408L61.6816 85.5671L61.209 85.7244C60.62 85.9199 60.1328 86.017 59.6592 86.1218C59.2111 86.221 58.7653 86.3299 58.3135 86.5457C55.8769 87.1498 53.4382 87.5306 50.9844 87.8552L48.5176 88.1687C44.8374 88.576 41.5749 88.5754 38.3164 88.1697C31.7858 87.3565 18.7038 83.2784 10.1396 74.7537C8.70765 73.1227 7.37733 71.4911 6.35059 70.2126C6.09321 69.8922 5.8546 69.5944 5.63867 69.324C5.4229 69.0537 5.22878 68.8098 5.06055 68.6003C4.92114 68.4268 4.79351 68.2715 4.68457 68.1394L50.6982 23.0818Z" stroke="#69C5E1"/>
            <path d="M78.3661 64.6423C82.4358 65.7596 86.847 68.4431 90.326 70.9324C92.1452 72.234 93.6962 73.4728 94.7919 74.3855C95.1499 74.6837 95.4588 74.9475 95.7128 75.1667C95.0978 75.2564 94.271 75.3817 93.3719 75.531C91.5204 75.8384 89.3161 76.2551 88.035 76.6804L87.5594 76.8386L87.7177 77.3132C87.9139 77.8998 88.0118 78.3852 88.1171 78.8572C88.2168 79.3042 88.3264 79.7489 88.5438 80.2C89.353 83.4393 89.7614 86.6829 90.1727 89.9607C90.5802 93.2081 90.5802 96.4555 90.1727 99.7029C89.3568 106.205 85.2648 119.23 76.7118 127.76C75.0719 129.189 73.4318 130.518 72.1464 131.543C71.8246 131.799 71.5253 132.037 71.2538 132.252C70.9825 132.467 70.7375 132.659 70.5272 132.827C70.3511 132.967 70.1929 133.095 70.0594 133.204L24.868 87.8005C29.6919 90.0473 35.2306 91.1841 39.6971 91.2185L70.5057 121.908L70.8583 122.26L71.2118 121.908C71.246 121.874 71.3166 121.812 71.4481 121.7C71.5714 121.595 71.7316 121.459 71.9198 121.291C72.2971 120.955 72.7873 120.493 73.3427 119.887C74.4511 118.678 75.8155 116.898 77.0741 114.395C81.6555 106.098 85.4253 94.4346 80.4091 80.2771L80.243 79.8064L79.7723 79.9724L73.9481 82.0183C75.8963 78.0807 78.2222 71.2619 78.3661 64.6423Z" stroke="#69C5E1"/>
            <path d="M76.7062 42.5291C76.7962 43.1418 76.9214 43.9662 77.0714 44.863C77.38 46.7075 77.7985 48.9049 78.2257 50.1814L78.3839 50.6541L78.8575 50.4968C79.4466 50.3012 79.9336 50.2042 80.4073 50.0994C80.8561 50 81.3016 49.89 81.754 49.6736C85.0067 48.8672 88.2639 48.4613 91.5548 48.0515C95.2326 47.6449 98.4934 47.647 101.75 48.0525C108.279 48.8656 121.357 52.9411 129.921 61.4617C131.364 63.1042 132.801 64.7408 133.878 66.0183C134.418 66.6588 134.863 67.2025 135.171 67.6091C135.291 67.7676 135.384 67.9016 135.455 68.0076L89.3673 113.138C91.6343 108.325 92.7816 102.791 92.8165 98.3298L123.625 67.6423L123.981 67.2888L123.625 66.9343C123.591 66.9002 123.53 66.829 123.417 66.698C123.312 66.5752 123.174 66.4157 123.006 66.2283C122.668 65.8525 122.205 65.3644 121.597 64.8113C120.383 63.7072 118.596 62.348 116.084 61.0945C107.755 56.5312 96.0469 52.7764 81.8361 57.7722L81.3624 57.9392L81.5304 58.4119L83.5851 64.2097C79.633 62.2688 72.7849 59.9506 66.1378 59.8074C67.2599 55.7558 69.9522 51.3644 72.4503 47.9001C73.7569 46.0883 74.9999 44.5433 75.9161 43.4519C76.2178 43.0926 76.4851 42.7831 76.7062 42.5291Z" stroke="#69C5E1"/>
            <path d="M115.234 48.8489C110.402 46.5909 104.847 45.4479 100.369 45.4133L69.5607 14.7249L69.2081 14.3733L68.8546 14.7249C68.8204 14.759 68.7498 14.8207 68.6183 14.9329C68.495 15.038 68.3348 15.1743 68.1466 15.342C67.7693 15.6783 67.2791 16.1395 66.7238 16.7454C65.6127 17.9575 64.2436 19.7429 62.9825 22.2551C58.4055 30.5514 54.6438 42.2083 59.6564 56.3557L59.8234 56.8264L60.2941 56.6604L66.1163 54.6125C64.1682 58.5497 61.8436 65.3691 61.6993 71.9885C57.6301 70.8711 53.2191 68.1895 49.7404 65.7004C47.9212 64.3988 46.3702 63.16 45.2745 62.2473C44.9163 61.9489 44.6077 61.6844 44.3536 61.4651C44.9685 61.3754 45.7948 61.251 46.6935 61.1018C48.5451 60.7944 50.7503 60.3777 52.0314 59.9524L52.507 59.7942L52.3478 59.3186C52.1516 58.7323 52.0546 58.2475 51.9493 57.7756C51.8496 57.3285 51.7391 56.8841 51.5216 56.4329C50.7123 53.1934 50.305 49.9491 49.8937 46.6711C49.6919 44.858 49.6911 43.14 49.7423 41.4563C49.7928 39.7954 49.8951 38.133 49.8966 36.4915C50.7207 29.9788 54.8143 16.9732 63.3595 8.45435C64.9973 7.02742 66.6362 5.70202 67.92 4.67896C68.2418 4.42253 68.5411 4.18509 68.8126 3.96997C69.0839 3.75505 69.3279 3.56137 69.5382 3.3938C69.7136 3.25405 69.8709 3.12681 70.004 3.01782L115.234 48.8489Z" stroke="#69C5E1"/>
        </g>
        <defs>
            <clipPath id="clip0_26_1607">
                <rect width="136" height="137" fill="white"/>
            </clipPath>
        </defs>
    </symbol>


    <symbol id="logo-beige-cut" viewBox="0 0 89 89" fill="none">
        <g clip-path="url(#clip0_27_2280)">
            <path d="M33.0902 63.2887C35.4599 62.9952 37.8297 62.7018 40.1994 62.1149C40.7918 61.8215 41.3843 61.8214 42.2729 61.528C42.8654 63.2887 43.4578 67.6903 43.4578 67.6903C43.4578 67.6903 50.2708 60.3543 51.7519 54.192C46.42 54.192 40.7918 52.1379 38.1259 50.6707L39.9032 55.6592C29.8318 59.1805 21.5377 56.5395 15.6134 53.3117C12.0588 51.5511 10.5777 49.497 10.2815 49.2035L32.4978 27.1955C32.4978 23.3808 33.6826 18.3924 36.0524 14.5776L1.09875 48.6167C1.39497 48.9101 3.17227 51.2576 5.24579 53.6051C11.4664 59.7674 20.9453 62.7018 25.6848 63.2887C28.0545 63.5821 30.4242 63.5821 33.0902 63.2887Z" fill="currentColor"/>
            <path d="M63.3044 64.1693C63.0081 61.8218 62.7119 59.4743 62.1195 57.1268C61.8233 56.5399 61.8233 55.953 61.5271 55.0727C63.3044 54.4858 67.7476 53.8989 67.7476 53.8989C67.7476 53.8989 60.3422 47.1498 54.1216 45.6826C54.1216 50.9645 52.0481 56.5399 50.567 59.1808L55.6027 57.4202C59.1573 67.3972 56.4914 75.6135 53.233 81.4823C51.4557 85.0035 49.3822 86.4707 49.0859 86.7642L26.8697 64.7562C23.0188 64.7562 17.9831 63.5824 14.1323 61.2349L48.4935 95.5674C48.7897 95.2739 51.1595 93.5133 53.5292 91.4592C59.7498 85.297 62.7119 75.9069 63.3044 71.2119C63.6006 68.8644 63.6006 66.5168 63.3044 64.1693Z" fill="currentColor"/>
            <path d="M91.7412 43.6286C85.5206 37.4663 76.0417 34.5319 71.3022 33.9451C68.9325 33.6516 66.5627 33.6516 63.8968 33.9451C61.5271 34.2385 59.1573 34.5319 56.7876 35.1188C56.1951 35.4123 55.6027 35.4123 54.7141 35.7057C54.1216 33.9451 53.5292 29.5435 53.5292 29.5435C53.5292 29.5435 46.7162 36.8795 45.2351 43.0417C50.567 43.0417 56.1951 45.0958 58.8611 46.563L57.0838 41.5745C67.1552 38.0532 75.4492 40.6942 81.3736 43.922C84.9282 45.6826 86.4093 47.7367 86.7055 48.0302L64.4892 70.0382C64.4892 73.8529 63.3044 78.8414 60.9346 82.6561L95.8882 48.617C95.8882 48.3236 93.8147 45.9761 91.7412 43.6286Z" fill="currentColor"/>
            <path d="M33.6826 33.358C33.9789 35.7055 34.2751 38.053 34.8675 40.4006C35.1637 40.9874 35.1637 41.5743 35.4599 42.4546C33.6826 43.0415 29.2394 43.6284 29.2394 43.6284C29.2394 43.6284 36.6448 50.3775 42.8654 51.8447C42.8654 46.5628 44.9389 40.9874 46.42 38.3465L41.3843 40.1071C37.8297 30.1302 40.4956 21.9138 43.754 16.0451C45.5313 12.5238 47.6048 11.0566 47.9011 10.7631L70.1173 32.7711C73.9682 32.7711 79.0039 33.9449 82.8547 36.2924L48.4935 1.6665C48.1973 1.95994 45.8275 3.72058 43.4578 5.77466C37.2372 11.9369 34.2751 21.327 33.6826 26.022C33.6826 28.3695 33.3864 30.717 33.6826 33.358Z" fill="currentColor"/>
        </g>
        <defs>
            <clipPath id="clip0_27_2280">
                <rect width="89" height="89" fill="white"/>
            </clipPath>
        </defs>
    </symbol>


    <symbol id="mail" viewBox="0 0 28 20" fill="none" >
        <g clip-path="url(#clip0_28_2477)">
            <path d="M1.18144 0.157171C1.45711 0.0785855 1.73278 0 2.04783 0C10.0028 0 17.9972 0 25.9916 0C26.2672 0 26.5823 0.0785855 26.8973 0.157171C26.7792 0.314342 26.7004 0.392927 26.661 0.43222C22.9592 4.12574 19.2968 7.77996 15.5949 11.4735C14.571 12.4951 13.429 12.4951 12.4051 11.4735C8.74262 7.81925 5.08017 4.16503 1.37835 0.471513C1.33897 0.392927 1.22082 0.353635 1.14206 0.275049C1.14206 0.235756 1.14206 0.196464 1.18144 0.157171Z" fill="currentColor"/>
            <path d="M26.8579 19.843C26.5035 19.8823 26.1885 19.9609 25.834 19.9609C20.5963 19.9609 15.3586 19.9609 10.1209 19.9609C7.48241 19.9609 4.80449 19.9609 2.16596 19.9609C1.85091 19.9609 1.49648 19.8823 1.18143 19.843C4.17439 16.8961 7.0886 13.9491 10.0816 11.0022C10.5541 11.4737 11.0661 11.9845 11.6174 12.5346C12.09 13.0061 12.6413 13.3205 13.3108 13.4776C14.4529 13.7134 15.4374 13.4776 16.3038 12.6918C16.8945 12.1417 17.4458 11.5523 17.9972 10.9629C20.9114 13.9098 23.865 16.8568 26.8579 19.843Z" fill="currentColor"/>
            <path d="M0.157525 18.8211C0.118143 18.6247 0.0393812 18.4282 0 18.2318C0 18.0746 0 17.9174 0 17.7602C0 12.5736 0 7.38696 0 2.20032C0 1.84669 0 1.49305 0.196906 1.17871C3.15049 4.12567 6.10408 7.07262 9.01828 9.98028C6.0647 12.8879 3.11111 15.8349 0.157525 18.8211Z" fill="currentColor"/>
            <path d="M27.8425 1.17871C27.8819 1.37517 27.9606 1.57164 28 1.7681C28.0394 1.92527 28 2.08244 28 2.23961C28 7.42625 28 12.6129 28 17.7602C28 18.1139 28 18.4675 27.8031 18.7819C24.8495 15.8349 21.8959 12.8879 18.9817 9.98028C21.9353 7.07262 24.8889 4.12567 27.8425 1.17871Z" fill="currentColor"/>
        </g>
        <defs>
            <clipPath id="clip0_28_2477">
                <rect width="28" height="20" fill="currentColor"/>
            </clipPath>
        </defs>
    </symbol>
    <symbol id="phone" viewBox="0 0 26 26" fill="none">
        <g clip-path="url(#clip0_27_2468)">
            <path d="M7.45771 9.9822C9.83991 13.3355 12.6791 16.1736 16.0239 18.5452C16.3642 18.0689 16.6656 17.6121 16.9962 17.1844C17.9297 15.9792 19.5923 15.6682 20.8661 16.5041C22.2079 17.3983 23.5303 18.3216 24.8332 19.2742C25.9416 20.0809 26.2917 21.4514 25.7666 22.7052C25.0179 24.513 23.6275 25.5336 21.7217 25.8641C19.6507 26.2237 17.6769 25.7669 15.7614 25.0282C13.1166 24.0076 10.7928 22.4816 8.65367 20.6349C5.87282 18.2342 3.53924 15.4738 1.84739 12.1983C0.972296 10.5362 0.320838 8.78669 0.0874796 6.90108C-0.136155 5.12239 0.0194168 3.40202 1.11815 1.90519C1.83767 0.923513 2.79055 0.252858 4.00595 0.0487462C5.05607 -0.135927 5.97978 0.223699 6.61179 1.06931C7.64245 2.43005 8.6245 3.82968 9.54821 5.26819C10.3455 6.5123 9.97604 8.13548 8.7898 9.02968C8.3717 9.35043 7.93415 9.64202 7.45771 9.9822Z" fill="currentColor"/>
        </g>
        <defs>
            <clipPath id="clip0_27_2468">
                <rect width="26" height="26" fill="currentColor"/>
            </clipPath>
        </defs>
    </symbol>
    <symbol id="telegram" viewBox="0 0 12 12" fill="none">
        <g clip-path="url(#clip0_30_52)">
            <path d="M6.40601 12C6.13534 12 5.86466 12 5.54887 12C5.41353 12 5.27819 11.9548 5.14286 11.9548C3.69925 11.7293 2.4812 11.0977 1.53383 10.015C0.721805 9.11274 0.225564 8.07515 0.0451128 6.90221C0.0451128 6.76688 0 6.58643 0 6.45109C0 6.1353 0 5.86462 0 5.54883C0 5.50372 0 5.50372 0.0451128 5.45861C0.0902256 5.18793 0.0902256 4.91725 0.180451 4.64658C0.947368 1.35334 4.2406 -0.676733 7.53383 0.18041C10.4662 0.947327 12.4511 3.83455 11.9549 6.99244C11.7293 8.34582 11.0977 9.51876 10.1053 10.421C9.24812 11.1879 8.25564 11.6842 7.12782 11.9097C6.85714 11.9548 6.63158 12 6.40601 12ZM5.90977 7.8947C5.95489 7.8947 5.95489 7.93981 6 7.93981C6.45113 8.2556 6.90226 8.57139 7.30827 8.93229C7.66917 9.20297 7.84962 9.11274 7.93985 8.70673C8.21053 7.30823 8.52632 5.95485 8.8421 4.55635C8.88722 4.33079 8.93233 4.10522 8.93233 3.87966C8.93233 3.69921 8.79699 3.56387 8.57143 3.60898C8.52632 3.60898 8.4812 3.65409 8.43609 3.65409C6.99248 4.19545 5.50376 4.78191 4.06015 5.32327C3.60902 5.54883 3.15789 5.72928 2.66165 5.90973C2.57143 5.95485 2.43609 5.99996 2.43609 6.1353C2.43609 6.27064 2.57143 6.31575 2.66165 6.31575C3.11278 6.45109 3.56391 6.58642 4.01504 6.76688C4.10526 6.81199 4.15038 6.76688 4.19549 6.72176C4.87218 6.27064 5.59398 5.86462 6.27068 5.41349C6.67669 5.14282 7.12782 4.87214 7.53383 4.60146C7.57895 4.55635 7.66917 4.60146 7.71429 4.60146C7.66917 4.64658 7.66917 4.69169 7.62406 4.7368C6.76692 5.54883 5.86466 6.31575 5.00752 7.12778C4.96241 7.17289 4.91729 7.26312 4.91729 7.30823C4.96241 7.66913 4.96241 7.98492 4.91729 8.30071C4.91729 8.43605 4.91729 8.57139 4.87218 8.75184C4.87218 8.75184 4.87218 8.75184 4.91729 8.79695C5.00752 8.75184 5.09774 8.70673 5.18797 8.6165C5.41353 8.39094 5.68421 8.16537 5.90977 7.8947Z" fill="currentColor"/>
        </g>
        <defs>
            <clipPath id="clip0_30_52">
                <rect width="12" height="12" fill="currentColor"/>
            </clipPath>
        </defs>
    </symbol>
    <symbol id="map" viewBox="0 0 12 16" fill="none" >
        <g clip-path="url(#clip0_136_212)">
            <path d="M8.34935 12.9095C7.7432 13.8294 7.13248 14.7492 6.51266 15.6604C6.43062 15.7825 6.2939 15.9002 6.15717 15.9569C5.90651 16.0615 5.66952 15.9438 5.48721 15.6779C4.86739 14.7492 4.24756 13.825 3.63685 12.892L2.86663 11.7585C2.83017 11.6975 2.80738 11.6495 2.77548 11.6059C2.15109 10.6686 1.5176 9.73562 0.897771 8.79393C0.410115 8.05279 0.113875 7.24625 0.031839 6.36996C-0.159578 4.36451 0.546841 2.67731 2.14198 1.36505C3.49557 0.248976 5.09527 -0.173913 6.87271 0.0658694C9.15147 0.371046 11.1568 2.04952 11.7584 4.1596C12.2506 5.89039 11.9908 7.50347 10.9608 9.00756C10.3592 9.88385 9.78042 10.7732 9.18794 11.6582L8.34935 12.9095ZM5.9931 14.4877C6.05235 14.4005 6.09337 14.3438 6.13438 14.2871C6.86815 13.1885 7.59735 12.0898 8.33112 10.9912C8.96006 10.0495 9.61179 9.12091 10.2134 8.16178C11.3254 6.40047 11.0884 4.14652 9.62546 2.61628C8.40404 1.33889 6.87726 0.841891 5.09527 1.13835C3.81004 1.35197 2.79827 2.00592 2.02348 3.00865C0.865869 4.50402 0.783833 6.69257 1.83662 8.25769C3.00791 10.0016 4.17008 11.7498 5.34137 13.498C5.55102 13.8206 5.76522 14.1433 5.9931 14.4877Z" fill="currentColor"/>
            <path d="M6.00211 3.16602C7.51522 3.16602 8.72752 4.33877 8.72296 5.79054C8.71841 7.22487 7.49699 8.3889 5.98844 8.38454C4.47534 8.38454 3.26303 7.21179 3.26759 5.76002C3.27215 4.32569 4.49357 3.16602 6.00211 3.16602ZM7.63371 5.78618C7.60181 4.9186 6.9592 4.22978 6.00667 4.22106C5.09972 4.21234 4.37963 4.85757 4.37052 5.76874C4.3614 6.63196 5.03136 7.32514 5.98844 7.33386C6.89083 7.34258 7.58358 6.69735 7.63371 5.78618Z" fill="currentColor"/>
        </g>
        <defs>
            <clipPath id="clip0_136_212">
                <rect width="12" height="16" fill="white"/>
            </clipPath>
        </defs>
    </symbol>

</svg>

