<svg width="89" height="89" viewBox="0 0 89 89" fill="none" xmlns="http://www.w3.org/2000/svg">
<g clip-path="url(#clip0_27_2280)">
<path d="M33.0902 63.2887C35.4599 62.9952 37.8297 62.7018 40.1994 62.1149C40.7918 61.8215 41.3843 61.8214 42.2729 61.528C42.8654 63.2887 43.4578 67.6903 43.4578 67.6903C43.4578 67.6903 50.2708 60.3543 51.7519 54.192C46.42 54.192 40.7918 52.1379 38.1259 50.6707L39.9032 55.6592C29.8318 59.1805 21.5377 56.5395 15.6134 53.3117C12.0588 51.5511 10.5777 49.497 10.2815 49.2035L32.4978 27.1955C32.4978 23.3808 33.6826 18.3924 36.0524 14.5776L1.09875 48.6167C1.39497 48.9101 3.17227 51.2576 5.24579 53.6051C11.4664 59.7674 20.9453 62.7018 25.6848 63.2887C28.0545 63.5821 30.4242 63.5821 33.0902 63.2887Z" fill="#F3F3F3"/>
<path d="M63.3044 64.1693C63.0081 61.8218 62.7119 59.4743 62.1195 57.1268C61.8233 56.5399 61.8233 55.953 61.5271 55.0727C63.3044 54.4858 67.7476 53.8989 67.7476 53.8989C67.7476 53.8989 60.3422 47.1498 54.1216 45.6826C54.1216 50.9645 52.0481 56.5399 50.567 59.1808L55.6027 57.4202C59.1573 67.3972 56.4914 75.6135 53.233 81.4823C51.4557 85.0035 49.3822 86.4707 49.0859 86.7642L26.8697 64.7562C23.0188 64.7562 17.9831 63.5824 14.1323 61.2349L48.4935 95.5674C48.7897 95.2739 51.1595 93.5133 53.5292 91.4592C59.7498 85.297 62.7119 75.9069 63.3044 71.2119C63.6006 68.8644 63.6006 66.5168 63.3044 64.1693Z" fill="#F3F3F3"/>
<path d="M91.7412 43.6286C85.5206 37.4663 76.0417 34.5319 71.3022 33.9451C68.9325 33.6516 66.5627 33.6516 63.8968 33.9451C61.5271 34.2385 59.1573 34.5319 56.7876 35.1188C56.1951 35.4123 55.6027 35.4123 54.7141 35.7057C54.1216 33.9451 53.5292 29.5435 53.5292 29.5435C53.5292 29.5435 46.7162 36.8795 45.2351 43.0417C50.567 43.0417 56.1951 45.0958 58.8611 46.563L57.0838 41.5745C67.1552 38.0532 75.4492 40.6942 81.3736 43.922C84.9282 45.6826 86.4093 47.7367 86.7055 48.0302L64.4892 70.0382C64.4892 73.8529 63.3044 78.8414 60.9346 82.6561L95.8882 48.617C95.8882 48.3236 93.8147 45.9761 91.7412 43.6286Z" fill="#F3F3F3"/>
<path d="M33.6826 33.358C33.9789 35.7055 34.2751 38.053 34.8675 40.4006C35.1637 40.9874 35.1637 41.5743 35.4599 42.4546C33.6826 43.0415 29.2394 43.6284 29.2394 43.6284C29.2394 43.6284 36.6448 50.3775 42.8654 51.8447C42.8654 46.5628 44.9389 40.9874 46.42 38.3465L41.3843 40.1071C37.8297 30.1302 40.4956 21.9138 43.754 16.0451C45.5313 12.5238 47.6048 11.0566 47.9011 10.7631L70.1173 32.7711C73.9682 32.7711 79.0039 33.9449 82.8547 36.2924L48.4935 1.6665C48.1973 1.95994 45.8275 3.72058 43.4578 5.77466C37.2372 11.9369 34.2751 21.327 33.6826 26.022C33.6826 28.3695 33.3864 30.717 33.6826 33.358Z" fill="#F3F3F3"/>
</g>
<defs>
<clipPath id="clip0_27_2280">
<rect width="89" height="89" fill="white"/>
</clipPath>
</defs>
</svg>
